<svg width="779" height="780" viewBox="0 0 779 780" fill="none" xmlns="http://www.w3.org/2000/svg">
<path d="M377.054 0.439798C318.921 3.00559 268.038 15.6879 218.545 39.953C178.35 59.6729 146.941 82.2518 114.507 114.654C82.1464 147.13 59.5964 178.579 39.9018 218.825C21.0857 257.239 8.56606 299.318 3.36785 341.25C-0.512509 372.553 -0.512509 407.447 3.36785 438.75C11.4946 504.507 37.2661 568.872 76.875 622.021C88.8089 638.148 98.4732 649.218 114.507 665.346C146.941 697.748 178.35 720.327 218.545 740.047C256.909 758.887 298.934 771.423 340.813 776.628C372.075 780.513 406.925 780.513 438.188 776.628C503.861 768.491 568.143 742.686 621.223 703.026C637.33 691.077 648.386 681.4 664.493 665.346C696.854 632.87 719.404 601.421 739.098 561.175C760.77 516.823 773.289 470.932 777.609 419.69C779.439 398.284 778.561 364.855 775.632 341.25C767.505 275.492 741.734 211.128 702.125 157.979C690.191 141.851 680.527 130.782 664.493 114.654C648.386 98.5996 637.33 88.9229 621.223 76.9736C563.018 33.5018 492.439 7.11085 419.884 1.53942C408.975 0.733032 385.18 0.0732571 377.054 0.439798ZM276.823 143.464C282.68 146.397 287.805 151.601 290.514 157.466C292.271 161.278 292.418 162.744 293.004 175.573C294.395 208.562 298.568 234.073 307.207 262.663C309.623 270.507 309.843 271.974 309.55 277.692C308.964 288.468 309.843 287.368 273.675 323.656C256.03 341.397 241.607 356.351 241.607 356.791C241.607 359.064 256.616 385.015 265.988 398.87C300.252 449.966 346.157 493.585 398.652 525.034C409.341 531.412 421.568 538.083 422.666 538.083C423.105 538.083 437.895 523.714 455.393 506.194C491.268 470.346 490.829 470.712 501.664 470.053C506.716 469.759 508.327 470.053 517.039 472.692C544.861 481.269 570.266 485.447 601.455 486.694C618.441 487.427 621.004 487.94 626.861 492.265C631.546 495.71 635.207 500.842 636.964 506.487C638.355 510.959 638.429 513.085 638.429 563.007C638.429 612.93 638.355 615.056 636.964 619.528C634.182 628.472 627.52 635.07 618.368 637.929C613.609 639.395 612.364 639.468 597.868 638.955C471.573 634.996 356.407 583.68 269.941 492.851C189.698 408.474 144.525 299.538 140.864 181.365C140.352 166.85 140.425 165.603 141.889 160.838C144.745 151.821 151.261 145.077 159.973 142.218C164.22 140.898 166.489 140.825 218.179 140.972L271.991 141.118L276.823 143.464Z" fill="#F01E11"/>
</svg>
