<svg width="100" height="101" viewBox="0 0 100 101" fill="none" xmlns="http://www.w3.org/2000/svg">
<path d="M48.3307 0.219199C40.8703 0.548481 34.3401 2.17608 27.9884 5.29015C22.83 7.82092 18.7991 10.7186 14.6366 14.877C10.4836 19.0448 7.58963 23.0808 5.0621 28.2459C2.64733 33.1757 1.04061 38.5759 0.373492 43.9573C-0.124497 47.9746 -0.124497 52.4528 0.373492 56.4701C1.41645 64.9091 4.72385 73.1694 9.80709 79.9903C11.3386 82.06 12.5789 83.4807 14.6366 85.5504C18.7991 89.7088 22.83 92.6065 27.9884 95.1373C32.9119 97.5551 38.3052 99.1639 43.6797 99.8319C47.6918 100.331 52.1643 100.331 56.1764 99.8319C64.6046 98.7876 72.8543 95.476 79.6665 90.3862C81.7336 88.8527 83.1524 87.6108 85.2195 85.5504C89.3725 81.3827 92.2665 77.3466 94.794 72.1816C97.5753 66.4897 99.182 60.6002 99.7363 54.024C99.9712 51.2768 99.8585 46.9867 99.4826 43.9573C98.4397 35.5183 95.1323 27.258 90.049 20.4372C88.5175 18.3674 87.2772 16.9468 85.2195 14.877C83.1524 12.8166 81.7336 11.5747 79.6665 10.0412C72.1966 4.46224 63.1389 1.07533 53.8274 0.36032C52.4274 0.256831 49.3737 0.172158 48.3307 0.219199ZM35.4676 18.5744C36.2193 18.9507 36.877 19.6187 37.2247 20.3713C37.4502 20.8605 37.469 21.0487 37.5441 22.6951C37.7226 26.9287 38.2582 30.2027 39.3669 33.8719C39.677 34.8785 39.7052 35.0667 39.6676 35.8005C39.5925 37.1835 39.7052 37.0424 35.0636 41.6994C32.7991 43.9762 30.9481 45.8954 30.9481 45.9519C30.9481 46.2435 32.8743 49.574 34.077 51.3521C38.4743 57.9095 44.3656 63.5073 51.1026 67.5434C52.4744 68.3619 54.0435 69.218 54.1845 69.218C54.2408 69.218 56.1388 67.374 58.3845 65.1255C62.9885 60.525 62.9322 60.572 64.3228 60.4873C64.9711 60.4497 65.1778 60.4873 66.2959 60.826C69.8664 61.9268 73.1268 62.463 77.1295 62.623C79.3094 62.717 79.6383 62.7829 80.3899 63.338C80.9913 63.7802 81.4611 64.4387 81.6866 65.1631C81.8651 65.737 81.8745 66.0099 81.8745 72.4168C81.8745 78.8237 81.8651 79.0965 81.6866 79.6704C81.3295 80.8182 80.4745 81.6649 79.3 82.0318C78.6893 82.22 78.5295 82.2294 76.6691 82.1635C60.461 81.6555 45.6811 75.0698 34.5844 63.4132C24.2863 52.5845 18.489 38.6041 18.0192 23.4383C17.9534 21.5755 17.9628 21.4156 18.1507 20.8041C18.5172 19.6469 19.3534 18.7813 20.4716 18.4144C21.0165 18.2451 21.3078 18.2357 27.9414 18.2545L34.8475 18.2733L35.4676 18.5744Z" fill="#F01E11"/>
</svg>
